P2
10 12
255
0 0 0 0 0 0 0 0 0 0 
0 255 255 255 255 255 255 255 255 0 
0 255 255 255 255 0 0 0 255 0 
0 255 255 255 255 0 0 0 255 0 
0 255 0 0 255 0 0 0 255 0 
0 255 0 0 255 0 0 0 255 0 
0 0 0 0 0 0 0 0 0 0 
0 255 255 255 255 255 255 255 255 0 
0 255 255 255 0 0 0 255 255 0 
0 255 255 255 0 0 0 255 255 0 
0 255 255 255 0 0 0 255 255 0 
0 0 0 0 0 0 0 0 0 0 
